<?xml version="1.0" encoding="UTF-8" standalone="no"?>
<!DOCTYPE svg PUBLIC "-//W3C//DTD SVG 1.1//EN" "http://www.w3.org/Graphics/SVG/1.1/DTD/svg11.dtd">
<svg version="1.1" xmlns="http://www.w3.org/2000/svg" xmlns:xlink="http://www.w3.org/1999/xlink" preserveAspectRatio="xMidYMid meet" viewBox="322.586956521739 31.82608695652175 244 243.9999999999999" width="240" height="240"><defs><path d="M465.05 110.47L465.05 110.47L464.01 110.47L465.05 110.47Z" id="a4fvATNh3"></path><path d="M323.59 32.83L563.59 32.83L563.59 272.83L323.59 272.83L323.59 32.83Z" id="aoLxlPQQp"></path><path d="M333.59 42.83L553.59 42.83L553.59 262.83L333.59 262.83L333.59 42.83Z" id="b9oM0indm"></path><path d="M333.59 42.83L400.13 42.83L400.13 84.14L450.63 42.83L553.59 42.83L333.59 222.83L333.59 42.83Z" id="b1IteAsRsg"></path><linearGradient id="gradientbcdpRsb6f" gradientUnits="userSpaceOnUse" x1="343.06" y1="180.42" x2="476.57" y2="-100.63"><stop style="stop-color: #329aea;stop-opacity: 1" offset="0%"></stop><stop style="stop-color: #010000;stop-opacity: 1" offset="100%"></stop></linearGradient><path d="M333.59 82.83L553.59 262.83L333.59 262.83L333.59 262.83L333.59 82.83ZM400.13 221.51L400.13 262.83L450.63 262.83L450.63 262.83L400.13 221.51Z" id="eCe3S4Ay5"></path><linearGradient id="gradientd1VGVuhr0" gradientUnits="userSpaceOnUse" x1="419.7" y1="206.85" x2="510.11" y2="344.58"><stop style="stop-color: #ffffff;stop-opacity: 1" offset="0%"></stop><stop style="stop-color: #aeaeae;stop-opacity: 1" offset="100%"></stop></linearGradient></defs><g><g><use xlink:href="#a4fvATNh3" opacity="1" fill="#1f711a" fill-opacity="1"></use></g><g><use xlink:href="#aoLxlPQQp" opacity="0" fill="#ffffff" fill-opacity="1"></use></g><g><use xlink:href="#b9oM0indm" opacity="0" fill="#ffffff" fill-opacity="1"></use></g><g><use xlink:href="#b1IteAsRsg" opacity="1" fill="url(#gradientbcdpRsb6f)"></use></g><g><use xlink:href="#eCe3S4Ay5" opacity="1" fill="url(#gradientd1VGVuhr0)"></use></g></g></svg>