<?xml version="1.0" encoding="UTF-8" standalone="no"?>
<!DOCTYPE svg PUBLIC "-//W3C//DTD SVG 1.1//EN" "http://www.w3.org/Graphics/SVG/1.1/DTD/svg11.dtd">
<svg version="1.1" xmlns="http://www.w3.org/2000/svg" xmlns:xlink="http://www.w3.org/1999/xlink" preserveAspectRatio="xMidYMid meet" viewBox="-1 -1 244 243.9999999999999" width="240" height="240"><defs><path d="M141.47 77.64L141.47 77.64L140.42 77.64L141.47 77.64Z" id="a23QcorgWg"></path><path d="M0 0L240 0L240 240L0 240L0 0Z" id="biFLOX47W"></path><path d="M10 10L230 10L230 230L10 230L10 10Z" id="f2KJBJSRT0"></path><path d="M10 10L76.54 10L76.54 51.32L127.04 10L230 10L10 190L10 10Z" id="c1e1y9weGh"></path><linearGradient id="gradientdKIBHUMLf" gradientUnits="userSpaceOnUse" x1="19.48" y1="147.59" x2="152.98" y2="-133.45"><stop style="stop-color: #329aea;stop-opacity: 1" offset="0%"></stop><stop style="stop-color: #010000;stop-opacity: 1" offset="100%"></stop></linearGradient><path d="M10 50L230 230L10 230L10 230L10 50ZM76.54 188.68L76.54 230L127.04 230L127.04 230L76.54 188.68Z" id="c6rb9cTjLi"></path><linearGradient id="gradientaezyDAYC5" gradientUnits="userSpaceOnUse" x1="90.68" y1="172.51" x2="157.17" y2="266.65"><stop style="stop-color: #2c2d3b;stop-opacity: 1" offset="0%"></stop><stop style="stop-color: #000001;stop-opacity: 1" offset="100%"></stop></linearGradient></defs><g><g><use xlink:href="#a23QcorgWg" opacity="1" fill="#1f711a" fill-opacity="1"></use></g><g><use xlink:href="#biFLOX47W" opacity="0" fill="#ffffff" fill-opacity="1"></use></g><g><use xlink:href="#f2KJBJSRT0" opacity="0" fill="#ffffff" fill-opacity="1"></use></g><g><use xlink:href="#c1e1y9weGh" opacity="1" fill="url(#gradientdKIBHUMLf)"></use></g><g><use xlink:href="#c6rb9cTjLi" opacity="1" fill="url(#gradientaezyDAYC5)"></use></g></g></svg>